<svg width="51" height="26" viewBox="0 0 51 26" fill="none" xmlns="http://www.w3.org/2000/svg">
<path d="M0 4C0 1.79086 1.79086 0 4 0H47C49.2091 0 51 1.79086 51 4V22C51 24.2091 49.2091 26 47 26H4C1.79086 26 0 24.2091 0 22V4Z" fill="#565C65"/>
<path d="M9.33269 18.5V6.932H16.6287L16.6207 8.236H10.8207V12.012H16.0447V13.308H10.8127V17.164L16.7807 17.18V18.5H9.33269ZM28.5004 18.5H26.6684L23.5324 13.732L20.4444 18.5H18.8124L22.7324 12.596L18.9484 6.932H20.7724L23.6524 11.34L26.5084 6.932H28.1404L24.4444 12.444L28.5004 18.5ZM30.6921 6.932H32.1721V18.5H30.6921V6.932ZM34.0633 8.292V6.932H42.8153V8.292H39.2873V18.5H37.7993V8.292H34.0633Z" fill="white"/>
</svg>
